<svg width="512" height="512" viewBox="0 0 512 512" fill="none" xmlns="http://www.w3.org/2000/svg">
  <rect width="512" height="512" rx="128" fill="#0f172a"/>
  <path d="M256 64C167.6 64 96 135.6 96 224V256H80C71.2 256 64 263.2 64 272V432C64 440.8 71.2 448 80 448H432C440.8 448 448 440.8 448 432V272C448 263.2 440.8 256 432 256H416V224C416 135.6 344.4 64 256 64ZM256 112C317.9 112 368 162.1 368 224V256H144V224C144 162.1 194.1 112 256 112Z" fill="#3b82f6"/>
  <circle cx="256" cy="352" r="48" fill="#e2e8f0"/>
  <rect x="240" y="352" width="32" height="64" fill="#e2e8f0"/>
</svg>
